<?xml version="1.0" encoding="utf-8"?><svg xmlns="http://www.w3.org/2000/svg" xmlns:xlink="http://www.w3.org/1999/xlink"><symbol viewBox="0 0 101 66" fill="none" id="arrow-down" xmlns="http://www.w3.org/2000/svg">
    <path d="M27 1L50.5 24.5L74 1" stroke="#2194FF"/>
    <path d="M15 9L50.5 45L86 9" stroke="#2194FF"/>
    <path d="M1 15L50.5 65L100 15" stroke="#2194FF"/>
</symbol><symbol viewBox="0 0 49 74" fill="none" id="arrow-l" xmlns="http://www.w3.org/2000/svg">
    <path d="M48 21L30 37L48 53" stroke="#2194FF"/>
    <path d="M42 11L16 37L42 63" stroke="#2194FF"/>
    <path d="M38 1L1 37L38 73" stroke="#2194FF"/>
</symbol><symbol viewBox="0 0 49 74" fill="none" id="arrow-r" xmlns="http://www.w3.org/2000/svg">
    <path d="M1 21L19 37L1 53" stroke="#2194FF"/>
    <path d="M7 11L33 37L7 63" stroke="#2194FF"/>
    <path d="M11 1L48 37L11 73" stroke="#2194FF"/>
</symbol><symbol viewBox="0 0 16 16" fill="none" id="arrow-right" xmlns="http://www.w3.org/2000/svg">
    <g clip-path="url(#dclip0_12_843)">
        <path d="M0.96172 6.87698C1.02719 6.86635 1.09344 6.86145 1.15973 6.86231L12.4474 6.86231L12.2013 6.74783C11.9607 6.63396 11.7418 6.47898 11.5545 6.28991L8.38913 3.12456C7.97224 2.72661 7.9022 2.08642 8.22313 1.60771C8.59666 1.0976 9.31297 0.986844 9.82312 1.36037C9.86433 1.39056 9.90351 1.42348 9.94032 1.45889L15.6643 7.18285C16.1116 7.62968 16.112 8.35451 15.6652 8.80184C15.6649 8.80212 15.6646 8.80244 15.6643 8.80273L9.94032 14.5267C9.49263 14.9731 8.7678 14.9721 8.32133 14.5244C8.2862 14.4892 8.2534 14.4517 8.22313 14.4122C7.9022 13.9335 7.97224 13.2933 8.38913 12.8954L11.5487 9.72429C11.7167 9.55615 11.9098 9.41516 12.1211 9.30644L12.4646 9.15189L1.22273 9.15189C0.637923 9.17361 0.124841 8.76509 0.0149768 8.19027C-0.0862299 7.56618 0.33763 6.97822 0.96172 6.87698Z" fill="#2194FF"/>
    </g>
    <defs>
        <clipPath id="dclip0_12_843">
            <rect width="16" height="16" fill="white" transform="matrix(-1 -8.74228e-08 -8.74228e-08 1 16 0)"/>
        </clipPath>
    </defs>
</symbol><symbol viewBox="0 0 22 23" fill="none" id="cloudy" xmlns="http://www.w3.org/2000/svg">
    <g opacity="0.4">
        <path d="M7.93817 4.14382C8.29412 4.14382 8.5827 3.85524 8.5827 3.49929V2.20142C8.5827 1.84546 8.29412 1.55688 7.93817 1.55688C7.58222 1.55688 7.29364 1.84546 7.29364 2.20142V3.49929C7.29364 3.85524 7.58222 4.14382 7.93817 4.14382Z" fill="#F1F1F1"/>
        <path d="M2.09091 6.5046L0.966887 5.85564C0.658586 5.67758 0.26439 5.78329 0.0864564 6.09154C-0.0915203 6.39985 0.014097 6.79404 0.322355 6.97198L1.44638 7.62093C1.75395 7.79857 2.14844 7.69402 2.32681 7.38504C2.50478 7.07673 2.39916 6.68254 2.09091 6.5046Z" fill="#F1F1F1"/>
        <path d="M1.44637 13.6314L0.32235 14.2803C-0.246556 14.6087 -0.0129782 15.4831 0.645217 15.4831C0.937276 15.4831 1.01105 15.342 2.09086 14.7477C2.39912 14.5697 2.50473 14.1756 2.32676 13.8673C2.14882 13.559 1.75471 13.4533 1.44637 13.6314Z" fill="#F1F1F1"/>
        <path d="M14.4299 7.62092L15.5539 6.97197C15.8622 6.79399 15.9678 6.39984 15.7898 6.09154C15.6119 5.78329 15.2177 5.67758 14.9094 5.85564L13.7854 6.5046C13.4771 6.68258 13.3715 7.07673 13.5495 7.38503C13.7283 7.69483 14.1231 7.79813 14.4299 7.62092Z" fill="#F1F1F1"/>
        <path d="M6.63545 12.2589C7.11382 9.63717 9.2253 7.62895 11.8611 7.2831C10.9147 6.17338 9.50726 5.4684 7.93813 5.4684C5.09497 5.4684 2.78192 7.78232 2.78192 10.6265C2.78192 11.9849 3.30979 13.2221 4.17084 14.1442C4.76695 13.2691 5.63702 12.6013 6.63545 12.2589Z" fill="#F1F1F1"/>
        <path d="M17.1405 11.5418C16.4106 9.73757 14.6417 8.52026 12.6587 8.52026C9.9997 8.52026 7.85337 10.6637 7.82527 13.3068C5.99458 13.5077 4.60205 15.078 4.60205 16.9203C4.60205 18.9249 6.23233 20.5558 8.23618 20.5558C18.3773 20.5452 17.8224 20.5817 17.999 20.5269C20.2518 20.2727 22 18.3614 22 16.0425C22 13.3944 19.7381 11.3383 17.1405 11.5418Z" fill="#F1F1F1"/>
    </g>
</symbol><symbol viewBox="0 0 107 114" fill="none" id="hero-line" xmlns="http://www.w3.org/2000/svg">
    <g clip-path="url(#fclip0_30_2)">
        <path d="M82.1667 87.294L80.399 86.0088C81.3922 84.6814 82.3749 83.3352 83.2857 81.9055L85.0888 83.1212C84.2452 84.5379 83.1682 85.9372 82.1667 87.294ZM87.8824 78.8968L85.9872 77.7825C86.8745 76.2669 87.6402 74.8445 88.2904 73.4376L90.2624 74.3352C89.5487 75.8957 88.7544 77.4183 87.8824 78.8968ZM92.0967 69.5107L90.0017 68.8806C90.1615 68.3694 90.3 67.8205 90.4303 67.301C90.6749 66.2724 90.8517 65.229 90.9596 64.1776L93.1306 64.3684C93.0162 65.5176 92.8279 66.6584 92.5668 67.7838C92.5143 68.309 92.273 68.9405 92.0967 69.5107ZM93.0702 59.0489L90.8905 59.2844C90.7274 57.6993 90.3828 56.1386 89.8635 54.6329L91.9423 53.9089C92.5269 55.6046 92.923 57.3599 93.1232 59.143L93.0702 59.0489ZM87.7723 50.4317C86.8912 49.147 85.802 48.0179 84.5492 47.0907L85.8413 45.3225C87.2848 46.3941 88.5395 47.6979 89.5544 49.1807L87.7723 50.4317ZM80.4143 44.9568C78.9094 44.4685 77.348 44.1731 75.7675 44.0778L75.916 41.9123C77.684 41.9976 79.4313 42.3232 81.11 42.8799L80.4143 44.9568ZM70.9273 44.2245C69.4813 44.3941 67.8842 44.6486 66.0794 45.0201L65.5864 42.8191C67.263 42.4499 68.9587 42.1739 70.6655 41.9926L70.9273 44.2245ZM61.1992 46.156L59.7141 46.521L56.3025 47.3508L55.7718 45.171L59.1538 44.3331L60.6579 43.9574L61.1992 46.156ZM51.3105 48.3761C49.6273 48.6544 47.9206 48.8467 46.2115 48.9908L46.0593 46.821C47.6905 46.6712 49.3489 46.4813 50.9649 46.2161L51.3105 48.3761ZM41.0918 49.171C39.3865 49.189 37.6765 49.1106 36.0126 48.9814L36.18 46.8052C37.8145 46.9262 39.4655 46.9883 41.1036 46.9833L41.0918 49.171ZM30.9067 48.4351C29.2358 48.1611 27.5438 47.8495 25.8872 47.4683L26.3872 45.3528C27.9848 45.7176 29.6178 46.0129 31.2297 46.2705L30.9067 48.4351ZM20.9673 46.1481C19.3332 45.6304 17.7158 45.0537 16.155 44.4451L16.9497 42.4116C18.481 43.012 20.0773 43.551 21.604 44.0548L20.9673 46.1481ZM11.4044 42.41C9.88507 41.6542 8.38228 40.8395 6.92553 39.9741L8.03844 38.1085C9.44452 38.928 10.9072 39.7157 12.3865 40.4445L11.4044 42.41ZM2.63449 37.2095C1.8414 36.6397 1.04829 36.0699 0.28237 35.4601L1.62512 33.7377C2.38045 34.3287 3.13347 34.8715 3.89708 35.433L2.63449 37.2095Z" fill="#F1F1F1"/>
        <path d="M92.7256 85.9111L92.2833 83.756L81.7341 85.9513L80.3514 75.279L78.1741 75.5628L79.8609 88.5423L92.7256 85.9111Z" fill="#F1F1F1"/>
    </g>
    <defs>
        <clipPath id="fclip0_30_2">
            <rect width="71" height="90" fill="white" transform="translate(0 34.8259) rotate(-29.3738)"/>
        </clipPath>
    </defs>
</symbol><symbol viewBox="0 0 269 98" fill="none" id="logo" xmlns="http://www.w3.org/2000/svg">
    <path d="M5.70637 61.5414V58.6414L11.372 52.8H19.9316V61.5414H5.70637ZM5.70637 76V67.3414H19.9316V76H25.5972V47H8.5188L0 55.7414V76H5.70637Z" fill="#F1F1F1"/>
    <path d="M44.1336 76V52.8H54.0383V47H28.4411V52.8H38.4273V76H44.1336Z" fill="#F1F1F1"/>
    <path d="M62.189 76V58.6L67.8546 52.8H76.4142V76H82.0798V47H65.0014L56.4826 55.7V76H62.189Z" fill="#F1F1F1"/>
    <path d="M91.4453 61.5414V58.6414L97.1109 52.8H105.67V61.5414H91.4453ZM91.4453 76V67.3414H105.67V76H111.336V47H94.2577L85.7389 55.7414V76H91.4453Z" fill="#F1F1F1"/>
    <path d="M121.109 76V64.4414H135.334V76H141V47H135.334V58.6414H121.109V47H115.403V76H121.109Z" fill="#F1F1F1"/>
    <path d="M195.672 76V52.8H214.067V47H190V76H195.672Z" fill="#F1F1F1"/>
    <path d="M220.551 61.5414V58.6414L226.183 52.8H234.691V61.5414H220.551ZM220.551 76V67.3414H234.691V76H240.323V47H223.346L214.878 55.7414V76H220.551Z" fill="#F1F1F1"/>
    <path d="M266.204 76L269 73.1414V64.4414L266.204 61.5414L269 58.6414V49.9414L266.204 47H246.351L243.555 49.9414V55.7H249.228V52.8H263.368V58.6414H254.86V64.4414H263.368V70.2H249.228V67.3414H243.555V73.1414L246.351 76H266.204Z" fill="#F1F1F1"/>
    <path d="M8.54933 86.674C8.54933 87.3626 8.32056 87.9316 7.86303 88.381C7.40549 88.8303 6.78553 89.116 6.00315 89.2381V89.2821C6.92279 89.3797 7.6274 89.6508 8.11696 90.0952C8.6111 90.5397 8.85816 91.1184 8.85816 91.8315C8.85816 92.8181 8.48299 93.5971 7.73263 94.1685C6.98685 94.7399 5.95282 95.0256 4.63054 95.0256C3.15728 95.0256 1.97455 94.8327 1.08236 94.4469V92.5421C1.51244 92.7619 2.01573 92.9353 2.59222 93.0623C3.17329 93.1844 3.71547 93.2454 4.21876 93.2454C5.90706 93.2454 6.75122 92.7204 6.75122 91.6703C6.75122 91.1966 6.47898 90.8327 5.93452 90.5788C5.39462 90.3248 4.59394 90.1978 3.53246 90.1978H2.59222V88.4249H3.43637C4.49786 88.4249 5.27109 88.3175 5.75608 88.1026C6.24106 87.8877 6.48356 87.5311 6.48356 87.033C6.48356 86.6667 6.33028 86.3761 6.02373 86.1612C5.72176 85.9414 5.26651 85.8315 4.65799 85.8315C3.71547 85.8315 2.80498 86.1221 1.92651 86.7033L1 85.1868C1.57192 84.7814 2.17815 84.486 2.8187 84.3004C3.45925 84.1099 4.17072 84.0147 4.9531 84.0147C6.04661 84.0147 6.91822 84.2589 7.56792 84.7473C8.22219 85.2357 8.54933 85.8779 8.54933 86.674Z" fill="#F1F1F1"/>
    <path d="M16.8742 94.8791L16.1467 92.3297H12.4887L11.7612 94.8791H9.46897L13.0103 84.1245H15.6114L19.1664 94.8791H16.8742ZM15.6388 90.4249C14.9663 88.1148 14.5865 86.8083 14.4996 86.5055C14.4172 86.2027 14.3577 85.9634 14.3211 85.7875C14.1701 86.4127 13.7378 87.9585 13.024 90.4249H15.6388Z" fill="#F1F1F1"/>
    <path d="M28.3766 94.8791H26.2559V86.0586H22.5636V94.8791H20.4361V84.1685H28.3766V94.8791Z" fill="#F1F1F1"/>
    <path d="M33.0366 89.2088H33.7366C34.3909 89.2088 34.8805 89.072 35.2053 88.7985C35.5302 88.5201 35.6926 88.1172 35.6926 87.5897C35.6926 87.0574 35.5553 86.6642 35.2808 86.4103C35.0109 86.1563 34.5854 86.0293 34.0043 86.0293H33.0366V89.2088ZM37.8407 87.5092C37.8407 88.6618 37.5021 89.5433 36.825 90.1538C36.1524 90.7643 35.1939 91.0696 33.9494 91.0696H33.0366V94.8791H30.9091V84.1685H34.1141C35.3311 84.1685 36.2554 84.4493 36.8868 85.011C37.5227 85.5678 37.8407 86.4005 37.8407 87.5092Z" fill="#F1F1F1"/>
    <path d="M45.8773 94.8791L45.1498 92.3297H41.4919L40.7644 94.8791H38.4721L42.0134 84.1245H44.6145L48.1696 94.8791H45.8773ZM44.642 90.4249C43.9694 88.1148 43.5896 86.8083 43.5027 86.5055C43.4204 86.2027 43.3609 85.9634 43.3243 85.7875C43.1733 86.4127 42.7409 87.9585 42.0272 90.4249H44.642Z" fill="#F1F1F1"/>
    <path d="M49.4392 84.1685H52.5619C53.9848 84.1685 55.0166 84.3858 55.6571 84.8205C56.3023 85.2503 56.6248 85.9365 56.6248 86.8791C56.6248 87.5189 56.483 88.044 56.1993 88.4542C55.9202 88.8645 55.5473 89.1111 55.0806 89.1941V89.2674C55.7166 89.4188 56.1741 89.7021 56.4532 90.1172C56.7369 90.5324 56.8788 91.0842 56.8788 91.7729C56.8788 92.7497 56.547 93.5116 55.8836 94.0586C55.2248 94.6056 54.328 94.8791 53.1933 94.8791H49.4392V84.1685ZM51.5668 88.4103H52.8021C53.3786 88.4103 53.795 88.315 54.0512 88.1245C54.312 87.9341 54.4424 87.619 54.4424 87.1795C54.4424 86.7692 54.3005 86.4762 54.0169 86.3004C53.7378 86.1197 53.294 86.0293 52.6854 86.0293H51.5668V88.4103ZM51.5668 90.2125V93.0037H52.9531C53.5387 93.0037 53.9711 92.884 54.2502 92.6447C54.5293 92.4054 54.6689 92.0391 54.6689 91.5458C54.6689 90.6569 54.0741 90.2125 52.8845 90.2125H51.5668Z" fill="#F1F1F1"/>
    <path d="M67.0635 94.8791H64.6477L61.0103 89.4505V94.8791H58.8828V84.1685H61.0103V89.3553L64.6065 84.1685H66.8713L63.2133 89.3114L67.0635 94.8791Z" fill="#F1F1F1"/>
    <path d="M74.4687 94.8791L73.7412 92.3297H70.0832L69.3557 94.8791H67.0635L70.6048 84.1245H73.2059L76.7609 94.8791H74.4687ZM73.2333 90.4249C72.5608 88.1148 72.181 86.8083 72.0941 86.5055C72.0117 86.2027 71.9522 85.9634 71.9156 85.7875C71.7647 86.4127 71.3323 87.9585 70.6185 90.4249H73.2333Z" fill="#F1F1F1"/>
    <path d="M88.0232 84.1685V86.044H83.8093V94.8791H81.6817V84.1685H88.0232Z" fill="#F1F1F1"/>
    <path d="M95.7166 94.8791L94.9891 92.3297H91.3311L90.6037 94.8791H88.3114L91.8527 84.1245H94.4538L98.0089 94.8791H95.7166ZM94.4813 90.4249C93.8087 88.1148 93.4289 86.8083 93.342 86.5055C93.2597 86.2027 93.2002 85.9634 93.1636 85.7875C93.0126 86.4127 92.5802 87.9585 91.8665 90.4249H94.4813Z" fill="#F1F1F1"/>
    <path d="M106.21 86.674C106.21 87.3626 105.981 87.9316 105.524 88.381C105.066 88.8303 104.446 89.116 103.664 89.2381V89.2821C104.584 89.3797 105.288 89.6508 105.778 90.0952C106.272 90.5397 106.519 91.1184 106.519 91.8315C106.519 92.8181 106.144 93.5971 105.393 94.1685C104.648 94.7399 103.614 95.0256 102.291 95.0256C100.818 95.0256 99.6354 94.8327 98.7432 94.4469V92.5421C99.1733 92.7619 99.6766 92.9353 100.253 93.0623C100.834 93.1844 101.376 93.2454 101.88 93.2454C103.568 93.2454 104.412 92.7204 104.412 91.6703C104.412 91.1966 104.14 90.8327 103.595 90.5788C103.055 90.3248 102.255 90.1978 101.193 90.1978H100.253V88.4249H101.097C102.159 88.4249 102.932 88.3175 103.417 88.1026C103.902 87.8877 104.144 87.5311 104.144 87.033C104.144 86.6667 103.991 86.3761 103.685 86.1612C103.383 85.9414 102.927 85.8315 102.319 85.8315C101.376 85.8315 100.466 86.1221 99.5874 86.7033L98.6609 85.1868C99.2328 84.7814 99.839 84.486 100.48 84.3004C101.12 84.1099 101.832 84.0147 102.614 84.0147C103.707 84.0147 104.579 84.2589 105.229 84.7473C105.883 85.2357 106.21 85.8779 106.21 86.674Z" fill="#F1F1F1"/>
    <path d="M114.734 84.1685V86.044H110.52V94.8791H108.393V84.1685H114.734Z" fill="#F1F1F1"/>
    <path d="M125.392 89.5092C125.392 91.2821 124.981 92.6447 124.157 93.5971C123.333 94.5495 122.153 95.0256 120.616 95.0256C119.078 95.0256 117.898 94.5495 117.074 93.5971C116.251 92.6447 115.839 91.2772 115.839 89.4945C115.839 87.7118 116.251 86.3516 117.074 85.4139C117.902 84.4713 119.088 84 120.629 84C122.171 84 123.349 84.4737 124.164 85.4212C124.983 86.3687 125.392 87.7314 125.392 89.5092ZM118.069 89.5092C118.069 90.7057 118.282 91.6068 118.708 92.2125C119.133 92.8181 119.769 93.1209 120.616 93.1209C122.313 93.1209 123.162 91.917 123.162 89.5092C123.162 87.0965 122.318 85.8901 120.629 85.8901C119.783 85.8901 119.145 86.1954 118.715 86.8059C118.285 87.4115 118.069 88.3126 118.069 89.5092Z" fill="#F1F1F1"/>
    <path d="M135.412 94.8791H133.292V86.0586H130.835L130.725 87.0403C130.441 89.536 130.19 91.2894 129.97 92.3004C129.755 93.3065 129.439 94.0147 129.023 94.4249C128.607 94.8352 128.044 95.0354 127.335 95.0256C126.95 95.0256 126.612 94.9719 126.319 94.8645V93.0037C126.584 93.1013 126.834 93.1502 127.067 93.1502C127.309 93.1502 127.502 93.033 127.643 92.7985C127.785 92.5592 127.918 92.1197 128.041 91.4799C128.17 90.8352 128.337 89.7827 128.542 88.3223C128.753 86.8571 128.931 85.4725 129.078 84.1685H135.412V94.8791Z" fill="#F1F1F1"/>
    <path d="M145.014 91.5311C145.014 93.7631 143.632 94.8791 140.868 94.8791H137.945V84.1685H140.072V88.2784H140.91C142.218 88.2784 143.229 88.5617 143.943 89.1282C144.657 89.6947 145.014 90.4957 145.014 91.5311ZM140.072 93.0183H140.786C141.504 93.0183 142.031 92.8962 142.365 92.652C142.699 92.4029 142.866 92.0293 142.866 91.5311C142.866 91.0379 142.696 90.6838 142.358 90.4689C142.019 90.2491 141.438 90.1392 140.615 90.1392H140.072V93.0183Z" fill="#F1F1F1"/>
    <path d="M145.727 92.989H146.503C147.166 91.5726 147.69 90.1587 148.075 88.7473C148.459 87.3309 148.745 85.8046 148.933 84.1685H154.78V92.989H156.118V98H154.066V94.8791H147.78V98H145.727V92.989ZM150.621 86.0586C150.474 87.177 150.23 88.3614 149.886 89.6117C149.548 90.862 149.166 91.9878 148.74 92.989H152.659V86.0586H150.621Z" fill="#F1F1F1"/>
    <path d="M163.448 94.8791H157.669V84.1685H163.448V86.0293H159.797V88.381H163.194V90.2418H159.797V93.0037H163.448V94.8791Z" fill="#F1F1F1"/>
    <path d="M167.675 89.2088H168.375C169.03 89.2088 169.519 89.072 169.844 88.7985C170.169 88.5201 170.331 88.1172 170.331 87.5897C170.331 87.0574 170.194 86.6642 169.92 86.4103C169.65 86.1563 169.224 86.0293 168.643 86.0293H167.675V89.2088ZM172.48 87.5092C172.48 88.6618 172.141 89.5433 171.464 90.1538C170.791 90.7643 169.833 91.0696 168.588 91.0696H167.675V94.8791H165.548V84.1685H168.753C169.97 84.1685 170.894 84.4493 171.526 85.011C172.162 85.5678 172.48 86.4005 172.48 87.5092Z" fill="#F1F1F1"/>
    <path d="M183.481 89.5092C183.481 91.2821 183.069 92.6447 182.246 93.5971C181.422 94.5495 180.242 95.0256 178.704 95.0256C177.167 95.0256 175.987 94.5495 175.163 93.5971C174.339 92.6447 173.928 91.2772 173.928 89.4945C173.928 87.7118 174.339 86.3516 175.163 85.4139C175.991 84.4713 177.176 84 178.718 84C180.26 84 181.438 84.4737 182.253 85.4212C183.071 86.3687 183.481 87.7314 183.481 89.5092ZM176.158 89.5092C176.158 90.7057 176.371 91.6068 176.796 92.2125C177.222 92.8181 177.858 93.1209 178.704 93.1209C180.402 93.1209 181.251 91.917 181.251 89.5092C181.251 87.0965 180.406 85.8901 178.718 85.8901C177.872 85.8901 177.233 86.1954 176.803 86.8059C176.373 87.4115 176.158 88.3126 176.158 89.5092Z" fill="#F1F1F1"/>
    <path d="M185.56 84.1685H188.683C190.106 84.1685 191.138 84.3858 191.778 84.8205C192.424 85.2503 192.746 85.9365 192.746 86.8791C192.746 87.5189 192.604 88.044 192.321 88.4542C192.041 88.8645 191.669 89.1111 191.202 89.1941V89.2674C191.838 89.4188 192.295 89.7021 192.574 90.1172C192.858 90.5324 193 91.0842 193 91.7729C193 92.7497 192.668 93.5116 192.005 94.0586C191.346 94.6056 190.449 94.8791 189.315 94.8791H185.56V84.1685ZM187.688 88.4103H188.923C189.5 88.4103 189.916 88.315 190.172 88.1245C190.433 87.9341 190.564 87.619 190.564 87.1795C190.564 86.7692 190.422 86.4762 190.138 86.3004C189.859 86.1197 189.415 86.0293 188.807 86.0293H187.688V88.4103ZM187.688 90.2125V93.0037H189.074C189.66 93.0037 190.092 92.884 190.371 92.6447C190.651 92.4054 190.79 92.0391 190.79 91.5458C190.79 90.6569 190.195 90.2125 189.006 90.2125H187.688Z" fill="#F1F1F1"/>
    <path d="M169.457 76V44.8H183V37H148V44.8H161.654V76H169.457Z" fill="#2194FF"/>
    <path fill-rule="evenodd" clip-rule="evenodd" d="M168.75 6.42341C167.613 7.35991 167.311 9.0497 167.842 11.4928C167.717 10.0654 168.322 8.92521 169.657 8.07231C170.545 7.27188 170.848 5.73951 170.566 3.47519C170.329 4.82792 169.723 5.81287 168.75 6.43009V6.42341ZM161.984 28.4645C160.819 27.2743 160.149 25.712 160.102 24.0756C160.055 22.4393 160.634 20.8436 161.73 19.5931C162.811 18.4369 162.996 17.1714 162.283 15.7964C163.347 16.3647 163.865 17.7704 163.836 20.0133C165.578 16.5377 165.508 13.6326 163.625 11.298C164.357 11.4847 165.075 11.7201 165.774 12.0024C165.547 10.7288 165.08 9.64691 164.373 8.75666C162.969 6.10724 163.055 3.18837 164.629 0C163.957 2.06599 164.297 4.02705 165.65 5.88315C166.967 7.76593 167.278 9.92662 166.583 12.3653C170.788 14.4312 172.049 18.1252 170.364 23.4472C171.711 22.5578 172.206 20.9837 171.848 18.7247C173.66 22.0233 173.806 24.7167 172.285 26.805C173.43 25.4698 174.072 23.7999 174.106 22.0678C174.159 19.7981 173.695 17.9923 172.714 16.6502C171.35 15.0494 170.537 13.7086 170.274 12.6281C169.678 8.66328 170.624 5.82665 173.112 4.11818C170.899 6.6084 171.037 9.93284 173.527 14.0915C173.118 11.7569 173.71 10.3259 175.303 9.79855C173.699 10.4327 173.854 13.5783 175.768 19.2356C176.295 21.5597 175.917 23.9895 174.707 26.0624C173.496 28.1354 171.538 29.7067 169.204 30.4773C166.87 31.2479 164.324 31.164 162.05 30.2416C159.777 29.3192 157.934 27.6227 156.873 25.4749C155.385 22.0687 155.8 17.9642 158.118 13.1617C159.658 10.6403 160.452 7.6761 160.501 4.26894C160.235 2.61918 159.674 1.29491 158.818 0.296154C161.487 2.53557 162.914 4.98623 163.098 7.64809C163.288 10.0627 162.655 12.2061 161.197 14.0782C159.217 16.732 158.252 19.7968 158.303 23.2724C158.502 24.3385 158.933 25.3518 159.567 26.2456C160.202 27.1394 161.025 27.8934 161.984 28.4579V28.4645ZM168.456 29.2649C170.385 27.6587 170.509 25.6381 168.828 23.203C167.453 21.3007 166.951 19.5616 167.325 17.9856C164.879 19.257 164.941 23.1203 165.611 26.202C164.903 25.679 163.626 23.1083 163.674 21.8637C161.73 24.8368 161.883 27.3306 164.134 29.345C165.554 29.7007 167.047 29.673 168.452 29.2649H168.456Z" fill="#2194FF"/>
</symbol><symbol viewBox="0 0 20 21" fill="none" id="moon" xmlns="http://www.w3.org/2000/svg">
    <g opacity="0.4" clip-path="url(#hclip0_6_229)">
        <path d="M19.5133 11.4491C19.3087 11.398 19.1041 11.4491 18.9251 11.5771C18.2602 12.1399 17.4929 12.6004 16.649 12.9074C15.8562 13.2144 14.9866 13.3679 14.066 13.3679C11.9944 13.3679 10.1019 12.5237 8.74647 11.1677C7.39102 9.81179 6.54706 7.9186 6.54706 5.84633C6.54706 4.97649 6.70051 4.13223 6.95625 3.36472C7.23757 2.54604 7.64677 1.80412 8.18383 1.16453C8.414 0.883109 8.36285 0.473771 8.08153 0.243519C7.90251 0.115601 7.69791 0.0644333 7.49332 0.1156C5.31949 0.704023 3.42698 2.00879 2.07153 3.74847C0.767234 5.46257 0 7.58601 0 9.88854C0 12.6772 1.12528 15.2099 2.96664 17.0519C4.808 18.894 7.3143 20.0196 10.1275 20.0196C12.4803 20.0196 14.6542 19.201 16.3932 17.845C18.1579 16.4635 19.4366 14.4936 19.9737 12.2422C20.076 11.8841 19.8714 11.5259 19.5133 11.4491Z" fill="#F1F1F1"/>
    </g>
    <defs>
        <clipPath id="hclip0_6_229">
            <rect width="20" height="20.0071" fill="white" transform="translate(0 0.0542755)"/>
        </clipPath>
    </defs>
</symbol><symbol viewBox="0 0 22 22" fill="none" id="snowflake" xmlns="http://www.w3.org/2000/svg">
    <path d="M11.9992 9.71154C11.9666 9.65724 11.9206 9.61229 11.8655 9.58106C11.8104 9.54983 11.7482 9.53339 11.6849 9.53334H10.3151C10.2518 9.53335 10.1896 9.54974 10.1345 9.5809C10.0795 9.61206 10.0334 9.65694 10.0008 9.71117L9.34083 10.8112C9.30664 10.8682 9.28857 10.9334 9.28857 10.9998C9.28857 11.0663 9.30664 11.1315 9.34083 11.1885L10.0008 12.2885C10.0334 12.3428 10.0794 12.3877 10.1345 12.419C10.1895 12.4502 10.2518 12.4666 10.3151 12.4667H11.6849C11.7482 12.4667 11.8104 12.4503 11.8655 12.4191C11.9205 12.388 11.9666 12.3431 11.9992 12.2888L12.6592 11.1888C12.6934 11.1319 12.7114 11.0666 12.7114 11.0002C12.7114 10.9337 12.6934 10.8685 12.6592 10.8115L11.9992 9.71154Z" fill="#2194FF"/>
    <path d="M19.9038 15.2937L18.4371 14.4478L19.6167 14.0144C19.7936 13.9537 19.942 13.8301 20.0338 13.6671C20.1255 13.5041 20.1541 13.3131 20.1143 13.1303C20.0889 13.0309 20.0429 12.9379 19.9794 12.8573C19.9158 12.7767 19.836 12.7104 19.7452 12.6626C19.6543 12.6148 19.5545 12.5866 19.4521 12.5798C19.3497 12.573 19.247 12.5878 19.1507 12.6232L16.7849 13.4933L14.9274 12.4205L15.5467 11.3729C15.6134 11.26 15.6486 11.1312 15.6486 11C15.6486 10.8688 15.6134 10.7401 15.5467 10.6271L14.9278 9.57954L16.7849 8.50667L19.1507 9.37677C19.2516 9.414 19.3596 9.42854 19.4669 9.41935C19.5741 9.41017 19.678 9.37748 19.7712 9.32362C19.8644 9.26976 19.9446 9.19605 20.0061 9.10771C20.0676 9.01937 20.1089 8.91857 20.1271 8.81247C20.1521 8.63793 20.1155 8.46012 20.0235 8.30967C19.9316 8.15922 19.79 8.04554 19.6233 7.98821L18.4382 7.55334L19.9049 6.70597C20.0684 6.61628 20.1933 6.46955 20.2556 6.29375C20.318 6.11794 20.3135 5.92534 20.243 5.75264C20.2011 5.65881 20.14 5.57482 20.0636 5.50612C19.9872 5.43742 19.8972 5.38554 19.7995 5.35384C19.7018 5.32213 19.5985 5.31132 19.4963 5.3221C19.3941 5.33288 19.2953 5.36501 19.2064 5.41641L17.7031 6.28357L17.9168 5.04717C17.9515 4.87155 17.9234 4.68931 17.8374 4.53229C17.7515 4.37526 17.6131 4.25343 17.4464 4.18807C17.3458 4.15246 17.2386 4.13925 17.1323 4.14936C17.026 4.15947 16.9233 4.19266 16.8311 4.24661C16.739 4.30055 16.6598 4.37396 16.599 4.4617C16.5382 4.54943 16.4973 4.64938 16.4791 4.75457L16.0498 7.23837L14.1798 8.31821L13.5949 7.32821C13.5304 7.21843 13.4383 7.12737 13.3279 7.06398C13.2174 7.00058 13.0923 6.96705 12.965 6.96667H11.7334V4.74357L13.64 3.15517C13.7796 3.04379 13.8756 2.88686 13.9112 2.71185C13.9468 2.53683 13.9197 2.35487 13.8347 2.19781C13.7811 2.10554 13.708 2.0261 13.6205 1.96501C13.533 1.90393 13.4332 1.86268 13.3281 1.84414C13.223 1.8256 13.1151 1.83022 13.012 1.85767C12.9089 1.88513 12.813 1.93476 12.7311 2.00311L11.7334 2.83434V1.13924C11.7373 0.960728 11.6784 0.78651 11.5668 0.647081C11.4553 0.507652 11.2982 0.411896 11.1232 0.376573C11.018 0.358635 10.9101 0.363898 10.8071 0.391995C10.704 0.420091 10.6084 0.470343 10.5268 0.539239C10.4453 0.608135 10.3797 0.694013 10.3348 0.790872C10.2899 0.88773 10.2666 0.993233 10.2667 1.10001V2.83434L9.29942 2.02767C9.16478 1.91051 8.99323 1.84444 8.81479 1.84102C8.63634 1.8376 8.46238 1.89706 8.32336 2.00897C8.24219 2.07837 8.17715 2.16466 8.1328 2.2618C8.08845 2.35895 8.06585 2.46461 8.06659 2.5714C8.06732 2.67818 8.09137 2.78352 8.13705 2.88005C8.18273 2.97658 8.24894 3.06196 8.33106 3.13024L10.2671 4.74357V6.96667H9.03506C8.90756 6.96668 8.78227 6.99993 8.67155 7.06314C8.56082 7.12634 8.46849 7.21733 8.40366 7.32711L7.81882 8.31711L5.94882 7.23727L5.52679 4.79491C5.49886 4.6101 5.40404 4.44199 5.26034 4.32249C5.11664 4.20298 4.93405 4.14041 4.74726 4.14664C4.64478 4.1536 4.54491 4.18202 4.45412 4.23004C4.36333 4.27806 4.28363 4.34462 4.2202 4.4254C4.15677 4.50619 4.11102 4.59939 4.08591 4.69899C4.06079 4.79858 4.05688 4.90234 4.07442 5.00354L4.29442 6.28247L2.82776 5.43474C2.67522 5.34197 2.4949 5.30583 2.31839 5.33264C2.14188 5.35946 1.98043 5.44752 1.86233 5.58141C1.79419 5.66357 1.74481 5.75962 1.71764 5.86285C1.69047 5.96608 1.68616 6.07399 1.70501 6.17905C1.72387 6.28412 1.76543 6.3838 1.8268 6.47114C1.88817 6.55847 1.96787 6.63136 2.06033 6.68471L3.56366 7.55187L2.37786 7.98784C2.21099 8.04517 2.06932 8.15887 1.97723 8.30938C1.88514 8.4599 1.8484 8.6378 1.87333 8.81247C1.89149 8.91857 1.9328 9.01937 1.9943 9.10771C2.0558 9.19605 2.136 9.26976 2.2292 9.32362C2.3224 9.37748 2.42631 9.41017 2.53356 9.41935C2.6408 9.42854 2.74876 9.414 2.84976 9.37677L5.21512 8.50667L7.07266 9.57954L6.45336 10.6271C6.38665 10.7401 6.35147 10.8688 6.35147 11C6.35147 11.1312 6.38665 11.26 6.45336 11.3729L7.07229 12.4205L5.21512 13.4933L2.84976 12.6232C2.75343 12.5878 2.65072 12.5729 2.54829 12.5796C2.44585 12.5864 2.34597 12.6145 2.25511 12.6623C2.16424 12.71 2.08442 12.7764 2.0208 12.8569C1.95718 12.9375 1.91119 13.0305 1.88579 13.13C1.84589 13.3128 1.87452 13.5038 1.96625 13.6669C2.05799 13.8299 2.20642 13.9536 2.38336 14.0144L3.56182 14.4467L2.09846 15.29C1.93242 15.3809 1.80605 15.5302 1.74385 15.709C1.68166 15.8878 1.68808 16.0833 1.76186 16.2576C1.80487 16.3497 1.86655 16.4319 1.943 16.4989C2.01945 16.5659 2.109 16.6163 2.20595 16.6468C2.3029 16.6774 2.40515 16.6874 2.5062 16.6764C2.60724 16.6653 2.70489 16.6333 2.79292 16.5825L4.29626 15.7153L4.08176 16.9569C4.05973 17.0643 4.06154 17.1752 4.08705 17.2818C4.11256 17.3885 4.16116 17.4882 4.22941 17.574C4.29766 17.6598 4.3839 17.7296 4.48206 17.7784C4.58021 17.8273 4.68789 17.854 4.79749 17.8567C4.97018 17.8564 5.13725 17.7952 5.26925 17.6839C5.40126 17.5725 5.48973 17.4182 5.51909 17.248L5.94846 14.7642L7.81846 13.6844L8.40329 14.6744C8.46833 14.7839 8.5608 14.8747 8.67159 14.9376C8.78237 15.0006 8.90764 15.0335 9.03506 15.0333H10.2667V17.2564L8.36002 18.8467C8.22047 18.9579 8.12455 19.1148 8.08909 19.2897C8.05362 19.4646 8.08087 19.6465 8.16606 19.8033C8.21968 19.8956 8.2928 19.975 8.3803 20.0361C8.4678 20.0972 8.56758 20.1384 8.67267 20.157C8.77776 20.1755 8.88563 20.1709 8.98876 20.1434C9.09188 20.116 9.18776 20.0664 9.26972 19.998L10.2667 19.1657V20.8608C10.2627 21.0393 10.3217 21.2135 10.4332 21.3529C10.5448 21.4924 10.7018 21.5881 10.8768 21.6234C10.9821 21.6414 11.09 21.6361 11.193 21.608C11.296 21.5799 11.3916 21.5297 11.4732 21.4608C11.5548 21.3919 11.6203 21.306 11.6653 21.2091C11.7102 21.1123 11.7334 21.0068 11.7334 20.9V19.1657L12.7307 19.9969C12.8144 20.0667 12.9126 20.117 13.0181 20.1442C13.1237 20.1713 13.234 20.1745 13.3409 20.1537C13.4479 20.1328 13.5489 20.0884 13.6365 20.0236C13.7242 19.9588 13.7962 19.8753 13.8476 19.7791C13.9255 19.6241 13.9477 19.4471 13.9106 19.2777C13.8735 19.1082 13.7793 18.9567 13.6437 18.8485L11.7334 17.2564V15.0333H12.965C13.0925 15.0333 13.2178 15.0001 13.3285 14.9369C13.4392 14.8737 13.5316 14.7827 13.5964 14.6729L14.1812 13.6829L16.0512 14.7627L16.4806 17.2465C16.5099 17.4167 16.5984 17.5711 16.7304 17.6824C16.8624 17.7938 17.0295 17.855 17.2022 17.8552C17.312 17.8518 17.4198 17.8245 17.518 17.7751C17.6162 17.7257 17.7024 17.6554 17.7705 17.5692C17.8387 17.483 17.8872 17.383 17.9127 17.276C17.9381 17.1691 17.9399 17.058 17.9179 16.9503L17.7045 15.7175L19.2079 16.5847C19.2959 16.6356 19.3935 16.6676 19.4946 16.6788C19.5957 16.6899 19.698 16.6799 19.795 16.6494C19.8919 16.6188 19.9815 16.5685 20.058 16.5015C20.1345 16.4345 20.1962 16.3523 20.2393 16.2602C20.3131 16.0862 20.3196 15.8909 20.2576 15.7123C20.1957 15.5338 20.0695 15.3846 19.9038 15.2937ZM13.288 11.5658L12.628 12.6658C12.53 12.8283 12.3917 12.9629 12.2265 13.0565C12.0613 13.1501 11.8748 13.1995 11.685 13.2H10.3151C10.1252 13.1995 9.93872 13.1501 9.77354 13.0565C9.60835 12.9629 9.47007 12.8283 9.37202 12.6658L8.71202 11.5658C8.60909 11.395 8.5547 11.1994 8.5547 11C8.5547 10.8006 8.60909 10.605 8.71202 10.4342L9.37202 9.33424C9.47007 9.17167 9.60835 9.0371 9.77354 8.94352C9.93872 8.84995 10.1252 8.80052 10.3151 8.80001H11.685C11.8748 8.80052 12.0613 8.84995 12.2265 8.94352C12.3917 9.0371 12.53 9.17167 12.628 9.33424L13.288 10.4342C13.391 10.605 13.4453 10.8006 13.4453 11C13.4453 11.1994 13.391 11.395 13.288 11.5658Z" fill="#2194FF"/>
</symbol><symbol viewBox="0 0 25 25" fill="none" id="sun" xmlns="http://www.w3.org/2000/svg">
    <g clip-path="url(#jclip0_6_190)">
        <path d="M12.5 6.23837C9.04727 6.23837 6.23837 9.04783 6.23837 12.5006C6.23837 15.9533 9.04727 18.7627 12.5 18.7627C15.9522 18.7627 18.7616 15.9538 18.7616 12.5006C18.7616 9.04727 15.9522 6.23837 12.5 6.23837Z" fill="#2194FF"/>
        <path d="M12.5 4.3977C11.8252 4.3977 11.2782 3.85075 11.2782 3.17648V1.22177C11.2782 0.546944 11.8252 0 12.5 0C13.1748 0 13.7218 0.546944 13.7218 1.22177V3.17648C13.7218 3.85075 13.1743 4.3977 12.5 4.3977Z" fill="#2194FF"/>
        <path d="M12.5 20.6017C11.8252 20.6017 11.2782 21.1487 11.2782 21.8235V23.7777C11.2782 24.4531 11.8252 25 12.5 25C13.1748 25 13.7218 24.4531 13.7218 23.7777V21.8235C13.7218 21.1487 13.1743 20.6017 12.5 20.6017Z" fill="#2194FF"/>
        <path d="M18.2285 6.77092C17.7519 6.29373 17.7519 5.52037 18.2285 5.04318L19.6108 3.66087C20.0875 3.18423 20.8614 3.18423 21.3386 3.66087C21.8158 4.13806 21.8158 4.91198 21.3386 5.38862L19.9563 6.77092C19.4796 7.24811 18.7063 7.24811 18.2285 6.77092Z" fill="#2194FF"/>
        <path d="M6.77093 18.2296C6.29374 17.7519 5.52038 17.7519 5.04319 18.2296L3.66088 19.6114C3.18424 20.088 3.18369 20.8625 3.66088 21.3391C4.13807 21.8158 4.91199 21.8158 5.38862 21.3391L6.77093 19.9563C7.24812 19.4796 7.24812 18.7057 6.77093 18.2296Z" fill="#2194FF"/>
        <path d="M20.6017 12.5C20.6017 11.8252 21.1487 11.2782 21.8235 11.2782H23.7782C24.4531 11.2782 25 11.8252 25 12.5C25 13.1748 24.4531 13.7212 23.7782 13.7212H21.8235C21.1487 13.7212 20.6017 13.1748 20.6017 12.5Z" fill="#2194FF"/>
        <path d="M4.3977 12.5C4.3977 11.8252 3.85075 11.2782 3.17593 11.2782H1.22177C0.546944 11.2782 0 11.8252 0 12.5C0 13.1748 0.546944 13.7212 1.22177 13.7212H3.17648C3.85075 13.7212 4.3977 13.1748 4.3977 12.5Z" fill="#2194FF"/>
        <path d="M18.2285 18.2296C18.7057 17.753 19.4796 17.753 19.9563 18.2296L21.3386 19.6119C21.8158 20.088 21.8158 20.8625 21.3386 21.3391C20.8614 21.8158 20.088 21.8158 19.6108 21.3391L18.2285 19.9568C17.7513 19.4796 17.7513 18.7063 18.2285 18.2296Z" fill="#2194FF"/>
        <path d="M6.77093 6.77092C7.24812 6.29373 7.24812 5.52037 6.77093 5.04318L5.38862 3.66142C4.91143 3.18423 4.13806 3.18423 3.66087 3.66142C3.18368 4.13806 3.18368 4.91198 3.66087 5.38861L5.04318 6.77092C5.52037 7.24867 6.29373 7.24867 6.77093 6.77092Z" fill="#2194FF"/>
    </g>
    <defs>
        <clipPath id="jclip0_6_190">
            <rect width="25" height="25" fill="white"/>
        </clipPath>
    </defs>
</symbol><symbol viewBox="0 0 14 16" fill="none" id="tab-arrow" xmlns="http://www.w3.org/2000/svg">
    <path d="M5.87698 0.96169C5.86635 1.02716 5.86145 1.09341 5.86231 1.1597L5.86231 12.4474L5.74783 12.2013C5.63396 11.9607 5.47898 11.7418 5.28991 11.5544L2.12456 8.3891C1.72661 7.97221 1.08642 7.90217 0.607715 8.2231C0.0976031 8.59663 -0.0131553 9.31294 0.360369 9.82309C0.390563 9.8643 0.423475 9.90348 0.458892 9.94029L6.18285 15.6642C6.62968 16.1116 7.35451 16.112 7.80184 15.6651C7.80212 15.6649 7.80244 15.6645 7.80273 15.6642L13.5267 9.94029C13.9731 9.4926 13.9721 8.76777 13.5244 8.3213C13.4892 8.28617 13.4517 8.25337 13.4122 8.2231C12.9335 7.90217 12.2933 7.97221 11.8954 8.3891L8.72429 11.5487C8.55615 11.7167 8.41516 11.9098 8.30644 12.1211L8.15189 12.4646L8.15189 1.2227C8.17361 0.637892 7.7651 0.124811 7.19027 0.0149466C6.56618 -0.0862601 5.97822 0.337599 5.87698 0.96169Z" fill="white"/>
</symbol></svg>