<svg width="341" height="125" viewBox="0 0 341 125" fill="none" xmlns="http://www.w3.org/2000/svg">
<path d="M7.23373 78.0135V74.3373L14.4158 66.9323H25.2664V78.0135H7.23373ZM7.23373 96.342V85.3659H25.2664V96.342H32.4485V59.5799H10.7989L0 70.6611V96.342H7.23373Z" fill="#F1F1F1"/>
<path d="M55.9464 96.342V66.9323H68.5021V59.5799H36.0536V66.9323H48.7126V96.342H55.9464Z" fill="#F1F1F1"/>
<path d="M78.8344 96.342V74.2848L86.0164 66.9323H96.867V96.342H104.049V59.5799H82.3995L71.6006 70.6086V96.342H78.8344Z" fill="#F1F1F1"/>
<path d="M115.921 78.0135V74.3373L123.103 66.9323H133.954V78.0135H115.921ZM115.921 96.342V85.3659H133.954V96.342H141.136V59.5799H119.487L108.688 70.6611V96.342H115.921Z" fill="#F1F1F1"/>
<path d="M153.525 96.342V81.6897H171.558V96.342H178.74V59.5799H171.558V74.3373H153.525V59.5799H146.291V96.342H153.525Z" fill="#F1F1F1"/>
<path d="M248.046 96.342V66.9323H271.364V59.5799H240.855V96.342H248.046Z" fill="#F1F1F1"/>
<path d="M279.583 78.0135V74.3373L286.722 66.9323H297.508V78.0135H279.583ZM279.583 96.342V85.3659H297.508V96.342H304.647V59.5799H283.127L272.392 70.6611V96.342H279.583Z" fill="#F1F1F1"/>
<path d="M337.456 96.342L341 92.7183V81.6897L337.456 78.0135L341 74.3373V63.3087L337.456 59.5799H312.289L308.745 63.3087V70.6086H315.935V66.9323H333.861V74.3373H323.075V81.6897H333.861V88.9896H315.935V85.3659H308.745V92.7183L312.289 96.342H337.456Z" fill="#F1F1F1"/>
<path d="M10.8375 109.873C10.8375 110.746 10.5475 111.467 9.96755 112.037C9.38755 112.606 8.60165 112.969 7.60986 113.123V113.179C8.77565 113.303 9.66885 113.647 10.2894 114.21C10.9158 114.773 11.229 115.507 11.229 116.411C11.229 117.662 10.7534 118.649 9.80225 119.373C8.85685 120.098 7.54606 120.46 5.86986 120.46C4.00227 120.46 2.50297 120.215 1.37198 119.726V117.312C1.91718 117.59 2.55517 117.81 3.28597 117.971C4.02257 118.126 4.70987 118.203 5.34786 118.203C7.48806 118.203 8.55815 117.538 8.55815 116.207C8.55815 115.606 8.21305 115.145 7.52286 114.823C6.83846 114.501 5.82346 114.34 4.47787 114.34H3.28597V112.093H4.35607C5.70166 112.093 6.68186 111.956 7.29666 111.684C7.91145 111.412 8.21885 110.96 8.21885 110.328C8.21885 109.864 8.02455 109.495 7.63596 109.223C7.25316 108.944 6.67606 108.805 5.90466 108.805C4.70987 108.805 3.55567 109.173 2.44207 109.91L1.26758 107.988C1.99258 107.474 2.76107 107.099 3.57307 106.864C4.38507 106.623 5.28696 106.502 6.27876 106.502C7.66496 106.502 8.76985 106.811 9.59345 107.431C10.4228 108.05 10.8375 108.864 10.8375 109.873Z" fill="#F1F1F1"/>
<path d="M21.3906 120.274L20.4684 117.042H15.8313L14.9091 120.274H12.0033L16.4925 106.641H19.7898L24.2964 120.274H21.3906ZM19.8246 114.628C18.972 111.699 18.4906 110.043 18.3804 109.659C18.276 109.276 18.2006 108.972 18.1542 108.749C17.9628 109.542 17.4147 111.501 16.5099 114.628H19.8246Z" fill="#F1F1F1"/>
<path d="M35.9718 120.274H33.2835V109.093H28.6029V120.274H25.9059V106.697H35.9718V120.274Z" fill="#F1F1F1"/>
<path d="M41.879 113.086H42.7664C43.5958 113.086 44.2164 112.913 44.6282 112.566C45.04 112.213 45.2459 111.702 45.2459 111.034C45.2459 110.359 45.0719 109.861 44.7239 109.539C44.3817 109.217 43.8423 109.056 43.1057 109.056H41.879V113.086ZM47.969 110.932C47.969 112.393 47.5398 113.51 46.6814 114.284C45.8288 115.058 44.6137 115.445 43.0361 115.445H41.879V120.274H39.182V106.697H43.2449C44.7877 106.697 45.9593 107.053 46.7597 107.765C47.5659 108.471 47.969 109.526 47.969 110.932Z" fill="#F1F1F1"/>
<path d="M58.1567 120.274L57.2345 117.042H52.5974L51.6752 120.274H48.7694L53.2586 106.641H56.5559L61.0625 120.274H58.1567ZM56.5907 114.628C55.7381 111.699 55.2567 110.043 55.1465 109.659C55.0421 109.276 54.9667 108.972 54.9203 108.749C54.7289 109.542 54.1808 111.501 53.276 114.628H56.5907Z" fill="#F1F1F1"/>
<path d="M62.672 106.697H66.6304C68.4342 106.697 69.7421 106.972 70.5541 107.523C71.3719 108.068 71.7808 108.938 71.7808 110.133C71.7808 110.944 71.601 111.61 71.2414 112.13C70.8876 112.65 70.4149 112.962 69.8233 113.068V113.161C70.6295 113.352 71.2095 113.712 71.5633 114.238C71.9229 114.764 72.1027 115.464 72.1027 116.337C72.1027 117.575 71.6822 118.541 70.8412 119.234C70.006 119.928 68.8692 120.274 67.4308 120.274H62.672V106.697ZM65.3689 112.074H66.9349C67.6657 112.074 68.1935 111.953 68.5183 111.712C68.8489 111.47 69.0142 111.071 69.0142 110.514C69.0142 109.994 68.8344 109.622 68.4748 109.399C68.121 109.17 67.5584 109.056 66.787 109.056H65.3689V112.074ZM65.3689 114.359V117.897H67.1263C67.8687 117.897 68.4168 117.745 68.7706 117.442C69.1244 117.138 69.3013 116.674 69.3013 116.049C69.3013 114.922 68.5473 114.359 67.0393 114.359H65.3689Z" fill="#F1F1F1"/>
<path d="M85.0135 120.274H81.9511L77.3401 113.393V120.274H74.6431V106.697H77.3401V113.272L81.8989 106.697H84.7699L80.1328 113.216L85.0135 120.274Z" fill="#F1F1F1"/>
<path d="M94.4007 120.274L93.4786 117.042H88.8415L87.9193 120.274H85.0135L89.5027 106.641H92.8L97.3065 120.274H94.4007ZM92.8348 114.628C91.9822 111.699 91.5008 110.043 91.3906 109.659C91.2862 109.276 91.2108 108.972 91.1644 108.749C90.973 109.542 90.4249 111.501 89.5201 114.628H92.8348Z" fill="#F1F1F1"/>
<path d="M111.583 106.697V109.074H106.241V120.274H103.544V106.697H111.583Z" fill="#F1F1F1"/>
<path d="M121.336 120.274L120.414 117.042H115.777L114.854 120.274H111.949L116.438 106.641H119.735L124.242 120.274H121.336ZM119.77 114.628C118.917 111.699 118.436 110.043 118.326 109.659C118.221 109.276 118.146 108.972 118.099 108.749C117.908 109.542 117.36 111.501 116.455 114.628H119.77Z" fill="#F1F1F1"/>
<path d="M134.638 109.873C134.638 110.746 134.348 111.467 133.768 112.037C133.188 112.606 132.402 112.969 131.41 113.123V113.179C132.576 113.303 133.469 113.647 134.09 114.21C134.716 114.773 135.03 115.507 135.03 116.411C135.03 117.662 134.554 118.649 133.603 119.373C132.657 120.098 131.347 120.46 129.67 120.46C127.803 120.46 126.304 120.215 125.173 119.726V117.312C125.718 117.59 126.356 117.81 127.087 117.971C127.823 118.126 128.51 118.203 129.148 118.203C131.289 118.203 132.359 117.538 132.359 116.207C132.359 115.606 132.014 115.145 131.323 114.823C130.639 114.501 129.624 114.34 128.278 114.34H127.087V112.093H128.157C129.502 112.093 130.482 111.956 131.097 111.684C131.712 111.412 132.019 110.96 132.019 110.328C132.019 109.864 131.825 109.495 131.437 109.223C131.054 108.944 130.477 108.805 129.705 108.805C128.51 108.805 127.356 109.173 126.243 109.91L125.068 107.988C125.793 107.474 126.562 107.099 127.374 106.864C128.186 106.623 129.088 106.502 130.079 106.502C131.466 106.502 132.57 106.811 133.394 107.431C134.223 108.05 134.638 108.864 134.638 109.873Z" fill="#F1F1F1"/>
<path d="M145.443 106.697V109.074H140.102V120.274H137.405V106.697H145.443Z" fill="#F1F1F1"/>
<path d="M158.955 113.467C158.955 115.714 158.433 117.442 157.389 118.649C156.345 119.856 154.848 120.46 152.899 120.46C150.951 120.46 149.454 119.856 148.41 118.649C147.366 117.442 146.844 115.708 146.844 113.448C146.844 111.189 147.366 109.464 148.41 108.276C149.46 107.081 150.962 106.483 152.917 106.483C154.871 106.483 156.365 107.084 157.397 108.285C158.435 109.486 158.955 111.213 158.955 113.467ZM149.672 113.467C149.672 114.984 149.941 116.126 150.481 116.894C151.02 117.662 151.826 118.045 152.899 118.045C155.051 118.045 156.127 116.519 156.127 113.467C156.127 110.409 155.057 108.879 152.917 108.879C151.844 108.879 151.035 109.266 150.489 110.04C149.944 110.808 149.672 111.95 149.672 113.467Z" fill="#F1F1F1"/>
<path d="M171.656 120.274H168.968V109.093H165.854L165.714 110.337C165.355 113.501 165.036 115.724 164.757 117.005C164.485 118.281 164.085 119.178 163.557 119.698C163.029 120.219 162.316 120.472 161.417 120.46C160.929 120.46 160.5 120.392 160.129 120.256V117.897C160.465 118.021 160.782 118.083 161.077 118.083C161.385 118.083 161.628 117.934 161.808 117.637C161.988 117.333 162.156 116.776 162.313 115.965C162.475 115.148 162.687 113.814 162.948 111.963C163.215 110.105 163.441 108.35 163.626 106.697H171.656V120.274Z" fill="#F1F1F1"/>
<path d="M183.828 116.03C183.828 118.86 182.076 120.274 178.573 120.274H174.867V106.697H177.564V111.907H178.625C180.284 111.907 181.566 112.266 182.471 112.984C183.375 113.702 183.828 114.718 183.828 116.03ZM177.564 117.915H178.469C179.379 117.915 180.046 117.761 180.47 117.451C180.893 117.135 181.105 116.662 181.105 116.03C181.105 115.405 180.89 114.956 180.461 114.684C180.032 114.405 179.295 114.266 178.251 114.266H177.564V117.915Z" fill="#F1F1F1"/>
<path d="M184.733 117.878H185.716C186.557 116.083 187.221 114.29 187.708 112.501C188.195 110.706 188.558 108.771 188.795 106.697H196.208V117.878H197.904V124.23H195.303V120.274H187.334V124.23H184.733V117.878ZM190.936 109.093C190.75 110.511 190.44 112.012 190.005 113.597C189.576 115.182 189.091 116.609 188.552 117.878H193.52V109.093H190.936Z" fill="#F1F1F1"/>
<path d="M207.196 120.274H199.87V106.697H207.196V109.056H202.567V112.037H206.874V114.396H202.567V117.897H207.196V120.274Z" fill="#F1F1F1"/>
<path d="M212.555 113.086H213.442C214.272 113.086 214.892 112.913 215.304 112.566C215.716 112.213 215.922 111.702 215.922 111.034C215.922 110.359 215.748 109.861 215.4 109.539C215.058 109.217 214.518 109.056 213.782 109.056H212.555V113.086ZM218.645 110.932C218.645 112.393 218.216 113.51 217.357 114.284C216.505 115.058 215.29 115.445 213.712 115.445H212.555V120.274H209.858V106.697H213.921C215.464 106.697 216.635 107.053 217.436 107.765C218.242 108.471 218.645 109.526 218.645 110.932Z" fill="#F1F1F1"/>
<path d="M232.591 113.467C232.591 115.714 232.069 117.442 231.025 118.649C229.981 119.856 228.485 120.46 226.536 120.46C224.587 120.46 223.091 119.856 222.047 118.649C221.003 117.442 220.481 115.708 220.481 113.448C220.481 111.189 221.003 109.464 222.047 108.276C223.096 107.081 224.599 106.483 226.553 106.483C228.508 106.483 230.001 107.084 231.034 108.285C232.072 109.486 232.591 111.213 232.591 113.467ZM223.308 113.467C223.308 114.984 223.578 116.126 224.117 116.894C224.657 117.662 225.463 118.045 226.536 118.045C228.688 118.045 229.764 116.519 229.764 113.467C229.764 110.409 228.693 108.879 226.553 108.879C225.48 108.879 224.671 109.266 224.126 110.04C223.581 110.808 223.308 111.95 223.308 113.467Z" fill="#F1F1F1"/>
<path d="M235.227 106.697H239.186C240.989 106.697 242.297 106.972 243.109 107.523C243.927 108.068 244.336 108.938 244.336 110.133C244.336 110.944 244.156 111.61 243.797 112.13C243.443 112.65 242.97 112.962 242.379 113.068V113.161C243.185 113.352 243.765 113.712 244.119 114.238C244.478 114.764 244.658 115.464 244.658 116.337C244.658 117.575 244.237 118.541 243.396 119.234C242.561 119.928 241.424 120.274 239.986 120.274H235.227V106.697ZM237.924 112.074H239.49C240.221 112.074 240.749 111.953 241.074 111.712C241.404 111.47 241.569 111.071 241.569 110.514C241.569 109.994 241.39 109.622 241.03 109.399C240.676 109.17 240.114 109.056 239.342 109.056H237.924V112.074ZM237.924 114.359V117.897H239.682C240.424 117.897 240.972 117.745 241.326 117.442C241.68 117.138 241.857 116.674 241.857 116.049C241.857 114.922 241.103 114.359 239.595 114.359H237.924Z" fill="#F1F1F1"/>
<path d="M214.813 96.342V56.7911H231.981V46.9034H187.613V56.7911H204.922V96.342H214.813Z" fill="#2194FF"/>
<path fill-rule="evenodd" clip-rule="evenodd" d="M213.917 8.14269C212.477 9.32985 212.093 11.4719 212.767 14.5689C212.608 12.7594 213.375 11.3141 215.067 10.2329C216.193 9.21826 216.577 7.27574 216.219 4.40536C215.919 6.12015 215.151 7.36873 213.917 8.15116V8.14269ZM205.341 36.0833C203.863 34.5745 203.014 32.594 202.954 30.5197C202.895 28.4454 203.629 26.4226 205.018 24.8374C206.389 23.3717 206.623 21.7674 205.719 20.0245C207.068 20.7449 207.725 22.5268 207.689 25.3701C209.897 20.9642 209.807 17.2815 207.42 14.322C208.349 14.5587 209.259 14.857 210.145 15.2149C209.858 13.6005 209.266 12.229 208.369 11.1004C206.59 7.7419 206.698 4.04176 208.693 0C207.841 2.61897 208.272 5.10492 209.987 7.45782C211.657 9.84455 212.051 12.5836 211.171 15.6749C216.502 18.2939 218.099 22.9766 215.963 29.723C217.671 28.5956 218.298 26.6001 217.845 23.7365C220.142 27.918 220.327 31.3324 218.399 33.9795C219.85 32.287 220.663 30.1701 220.706 27.9744C220.774 25.0972 220.186 22.808 218.942 21.1068C217.214 19.0775 216.182 17.3779 215.849 16.0081C215.094 10.9821 216.294 7.3862 219.447 5.22044C216.642 8.37719 216.817 12.5914 219.974 17.8632C219.454 14.9038 220.205 13.0898 222.225 12.4212C220.191 13.2251 220.387 17.2127 222.814 24.3841C223.482 27.3304 223.003 30.4105 221.469 33.0383C219.934 35.666 217.451 37.6579 214.493 38.6348C211.535 39.6117 208.307 39.5053 205.425 38.336C202.542 37.1667 200.206 35.0161 198.861 32.2935C196.975 27.9755 197.501 22.7725 200.44 16.6845C202.392 13.4883 203.399 9.73066 203.461 5.41156C203.123 3.32022 202.412 1.6415 201.327 0.375422C204.711 3.21424 206.52 6.32083 206.752 9.69516C206.994 12.7561 206.191 15.4731 204.343 17.8463C201.833 21.2105 200.61 25.0955 200.675 29.5015C200.927 30.8529 201.473 32.1374 202.277 33.2705C203.081 34.4035 204.125 35.3593 205.341 36.0748V36.0833ZM213.545 37.0979C215.99 35.0618 216.147 32.5004 214.017 29.4135C212.273 27.002 211.637 24.7974 212.111 22.7996C209.011 24.4112 209.09 29.3087 209.938 33.2151C209.04 32.5522 207.422 29.2934 207.483 27.7156C205.018 31.4846 205.212 34.6458 208.066 37.1994C209.865 37.6503 211.759 37.6152 213.54 37.0979H213.545Z" fill="#2194FF"/>
</svg>
